<svg id="Inteligentny_obiekt_wektorowy" data-name="Inteligentny obiekt wektorowy" xmlns="http://www.w3.org/2000/svg" width="372.999" height="378" viewBox="0 0 372.999 378">
  <g id="Inteligentny_obiekt_wektorowy-2" data-name="Inteligentny obiekt wektorowy" transform="translate(0.001)">
    <g id="NewGroup0-13">
      <g id="Group_117" data-name="Group 117">
        <path id="Path_383" data-name="Path 383" d="M2500.29,2146.9a68.9,68.9,0,0,1-1.1-11.812,50.4,50.4,0,0,1,3.353-17.977c3.314-8.755,9.055-17.182,16.973-24.993a124.908,124.908,0,0,1,29.8-21.179h.006c4.867-2.563,10.037-4.953,15.47-7.16q6.5-2.643,13.479-4.914h.006a233.6,233.6,0,0,1,30.424-7.638h.006q6.031-1.109,12.263-1.94h.006a276.365,276.365,0,0,1,31.1-2.357q2.86-.058,5.725-.056,5.021,0,9.958.172h.006a274.274,274.274,0,0,1,31.086,2.84h0q6.182.925,12.167,2.129a229.614,229.614,0,0,1,26.3,6.848h.006c4.648,1.506,9.145,3.157,13.485,4.914a162.2,162.2,0,0,1,27.453,14.164c12.151,7.91,21.744,16.96,28.232,26.621a60.394,60.394,0,0,1,7.385,14.9,49.99,49.99,0,0,1,2.523,15.626,65.539,65.539,0,0,1-.6,8.466,59.685,59.685,0,0,1-4.239,15.837,36.069,36.069,0,0,1-4.1,7.132,25.716,25.716,0,0,1-4.272,4.486h-14.31a5.284,5.284,0,1,0,0,10.567h14.567l7.02,10.462,22.053,32.869h0a6.221,6.221,0,0,1,1.116,3.535,6.392,6.392,0,0,1-.51,2.479,6.932,6.932,0,0,1-2.507,3.035,7.02,7.02,0,0,1-1.884.906,7.821,7.821,0,0,1-2.3.334H2489.148a7.62,7.62,0,0,1-2.972-.578,7.027,7.027,0,0,1-3.1-2.546,6.547,6.547,0,0,1-1.138-3.63,6.272,6.272,0,0,1,1.121-3.535l22.053-32.869,7.02-10.462h206.4a5.284,5.284,0,1,0,0-10.567H2512.446a20.962,20.962,0,0,1-2.613-2.335,30.118,30.118,0,0,1-5.187-7.716,54.943,54.943,0,0,1-4.357-14.058Zm2.557-234.432v-.006a20.108,20.108,0,0,1,2.977-18.01,20.635,20.635,0,0,1,16.614-8.4,20.644,20.644,0,0,1,12.044,3.88,20.224,20.224,0,0,1,3.392,29.873,14.9,14.9,0,0,1-4.772,3.169,37.346,37.346,0,0,1-9.891,2.568,54.166,54.166,0,0,1-6.258.461,20.741,20.741,0,0,1-8.478-4.68,20.171,20.171,0,0,1-5.629-8.855Zm60.837,140.372-40.158-116.691a54.775,54.775,0,0,0,9.47-1.9,36.587,36.587,0,0,0,5.96-2.362L2576.1,2048.46l-1.161.367q-5.77,1.876-11.254,4.014Zm20.64-129.888a19.547,19.547,0,0,1-3.83-5.309,26.279,26.279,0,0,1-2.406-7.432,27.085,27.085,0,0,1-.393-4.58,23.544,23.544,0,0,1,.718-5.876,15.124,15.124,0,0,1,3.129-6.254,8.18,8.18,0,0,1,1.974-1.645,6.059,6.059,0,0,1,2.063-.756,5.756,5.756,0,0,1,.97-.083,7.4,7.4,0,0,1,3.4.906,12.589,12.589,0,0,1,2.792,2.051,19.544,19.544,0,0,1,3.83,5.309,26.251,26.251,0,0,1,2.405,7.438h0a26.95,26.95,0,0,1,.393,4.575,23.543,23.543,0,0,1-.718,5.876,15.087,15.087,0,0,1-3.123,6.254,8.3,8.3,0,0,1-1.979,1.645,5.975,5.975,0,0,1-2.063.756,5.719,5.719,0,0,1-.97.083,7.378,7.378,0,0,1-3.392-.906,12.32,12.32,0,0,1-2.8-2.051Zm56.744-32.2a20.524,20.524,0,0,1,18.907-12.424h.005A20.532,20.532,0,0,1,2677,1887.3a20.055,20.055,0,0,1,3.5,11.368v.011a20.072,20.072,0,0,1-2.714,10.117,20.513,20.513,0,0,1-7.11,7.232,20.953,20.953,0,0,1-10.334,2.685,24.822,24.822,0,0,1-8.1-1.412,21.432,21.432,0,0,1-2.327-.951c-.258-.122-.448-.217-.555-.278l-.056-.028a20.544,20.544,0,0,1-7.126-7.26,20.238,20.238,0,0,1-1.1-18.033Zm18.834-12.424Zm-8.013,158.032V1928.217a34.835,34.835,0,0,0,8.45,1.067,31.945,31.945,0,0,0,7.57-.9l.146-.039v108.147q-5.1-.183-10.267-.183c-1.979,0-3.948.022-5.9.055Zm121.664-136.024h0a20.23,20.23,0,0,1,7.536-10.406,20.642,20.642,0,0,1,18.167-2.952,20.24,20.24,0,0,1,13.474,25.487h0a20.171,20.171,0,0,1-5.629,8.855,20.751,20.751,0,0,1-8.988,4.819,17.986,17.986,0,0,1-4,.445,20.81,20.81,0,0,1-6.443-1.067,28.732,28.732,0,0,1-7.48-3.791c-.919-.639-1.632-1.212-2.1-1.6q-.32-.275-.471-.417a20.118,20.118,0,0,1-4.071-19.373ZM2754.838,2054h0q-6.022-2.443-12.437-4.586l34.344-117.319.1.061a38.319,38.319,0,0,0,7.508,3.4,31.985,31.985,0,0,0,7.665,1.512L2756.1,2054.524c-.421-.172-.835-.35-1.261-.522Zm49.909,127.575h0l-.006.006.006-.006ZM2719.406,1911.3a26.95,26.95,0,0,1,.392-4.575l-5.254-.878,5.254.878a26.541,26.541,0,0,1,2.052-6.7,18.959,18.959,0,0,1,5.119-6.865,10.561,10.561,0,0,1,2.759-1.634,6.9,6.9,0,0,1,2.5-.5,5.756,5.756,0,0,1,.97.083,6.288,6.288,0,0,1,2.731,1.2,9.406,9.406,0,0,1,1.934,1.984,15.5,15.5,0,0,1,2.316,4.819,23.01,23.01,0,0,1,.9,6.532,27.085,27.085,0,0,1-.393,4.58,26.557,26.557,0,0,1-2.052,6.7,19.02,19.02,0,0,1-5.119,6.865,10.641,10.641,0,0,1-2.759,1.634,6.8,6.8,0,0,1-2.5.5,5.719,5.719,0,0,1-.97-.083,6.224,6.224,0,0,1-2.731-1.2,9.559,9.559,0,0,1-1.94-1.985,15.493,15.493,0,0,1-2.31-4.819,23,23,0,0,1-.9-6.532Zm-245.218,307.759v.006A16.67,16.67,0,0,0,2472.63,2235a17.54,17.54,0,0,0,6.319,7.682,18.029,18.029,0,0,0,4.732,2.268,18.629,18.629,0,0,0,5.467.812h337.281a18.345,18.345,0,0,0,7.138-1.423,17.662,17.662,0,0,0,7.8-6.409,17.045,17.045,0,0,0,2.921-9.489,16.8,16.8,0,0,0-2.9-9.383v-.006l-22.059-32.864-6.487-9.678a39.287,39.287,0,0,0,5.192-6.648,51.646,51.646,0,0,0,4.581-9.45,72.143,72.143,0,0,0,3.538-14.036,77.043,77.043,0,0,0,.9-11.29,61.629,61.629,0,0,0-5.344-24.893,77.123,77.123,0,0,0-10.356-16.949,111.337,111.337,0,0,0-24.021-21.969,160.175,160.175,0,0,0-21.43-12.374l37.736-123.412a31.251,31.251,0,0,0,10.7-6.415,30.715,30.715,0,0,0,4.048-40.818,31.081,31.081,0,0,0-15.952-11.362h-.006a31.343,31.343,0,0,0-27.587,4.475,30.716,30.716,0,0,0-6.975,43.125l-35.639,121.772q-9.26-2.635-19.115-4.614l-1.985-.384,19.35-104.945a18.618,18.618,0,0,0,6.134-1.974,23.031,23.031,0,0,0,5.237-3.8,29.876,29.876,0,0,0,5.955-8.177,36.734,36.734,0,0,0,3.387-10.406,37.861,37.861,0,0,0,.544-6.337,33.751,33.751,0,0,0-1.06-8.511,25.467,25.467,0,0,0-5.461-10.617,18.879,18.879,0,0,0-4.559-3.758,16.732,16.732,0,0,0-5.691-2.062,16.334,16.334,0,0,0-2.742-.228,18.025,18.025,0,0,0-8.355,2.118,25.649,25.649,0,0,0-9.476,8.972,35.93,35.93,0,0,0-5.108,13.419h0a37.706,37.706,0,0,0-.538,6.331,34.007,34.007,0,0,0,1.054,8.511,25.539,25.539,0,0,0,5.467,10.617,18.879,18.879,0,0,0,4.559,3.758l.2.111-19.4,105.179-.2-.028q-10.606-1.593-21.717-2.385V1923.364a31.241,31.241,0,0,0,8.31-9.3,30.572,30.572,0,0,0,4.133-15.387v-.111h-.005a30.632,30.632,0,0,0-2.445-11.929,31.2,31.2,0,0,0-28.619-18.872h-.112a31.23,31.23,0,0,0-25.849,13.619,30.7,30.7,0,0,0-1.194,32.669,30.984,30.984,0,0,0,8.3,9.3v113.422q-11.035.625-21.632,2.035l-20.051-105c.359-.228.718-.467,1.06-.723a19.91,19.91,0,0,0,4.138-4.191,25.886,25.886,0,0,0,3.947-8.094,33.47,33.47,0,0,0,1.334-9.506,37.707,37.707,0,0,0-.538-6.331l-5.254.878,5.254-.878a37.137,37.137,0,0,0-2.876-9.35,29.507,29.507,0,0,0-8.1-10.679,21.321,21.321,0,0,0-5.562-3.252,17.6,17.6,0,0,0-6.4-1.229,16.334,16.334,0,0,0-2.742.228,17,17,0,0,0-7.351,3.157,20.165,20.165,0,0,0-4.138,4.191,25.881,25.881,0,0,0-3.947,8.094,33.472,33.472,0,0,0-1.335,9.506,37.835,37.835,0,0,0,.544,6.337,36.953,36.953,0,0,0,2.871,9.344,29.524,29.524,0,0,0,8.108,10.678,21.2,21.2,0,0,0,5.557,3.252,17.881,17.881,0,0,0,5.08,1.173l19.866,104.017c-.768.133-1.542.267-2.3.406q-10.538,1.918-20.449,4.608l-38.555-121.016a30.748,30.748,0,0,0-7.02-43.059,31.343,31.343,0,0,0-27.587-4.475,31.073,31.073,0,0,0-15.958,11.362,30.756,30.756,0,0,0,4.048,40.818,31.376,31.376,0,0,0,10.816,6.454l41.8,121.438c-3.269,1.479-6.454,3.019-9.527,4.631-16.8,8.822-30.638,19.623-40.4,32.03a75.205,75.205,0,0,0-11.36,19.762,61.1,61.1,0,0,0-4.037,21.7,77.046,77.046,0,0,0,.7,9.945,69.977,69.977,0,0,0,5.074,18.9,44.289,44.289,0,0,0,5.405,9.217,33.766,33.766,0,0,0,3.006,3.407l-6.465,9.633-22.053,32.864Z" transform="translate(-2471.29 -1867.765)" fill="#fff"/>
        <path id="Path_384" data-name="Path 384" d="M2700.428,2039.441h0Z" transform="translate(-2471.29 -1867.765)" fill="#fff"/>
        <path id="Path_385" data-name="Path 385" d="M2544.32,2061.6h0l0,0Z" transform="translate(-2471.29 -1867.765)" fill="#fff"/>
        <path id="Path_386" data-name="Path 386" d="M2574.939,2048.828h0l0,0-.006,0Z" transform="translate(-2471.29 -1867.765)" fill="#fff"/>
        <path id="Path_387" data-name="Path 387" d="M2606.755,2040.839h.007l-.007,0Z" transform="translate(-2471.29 -1867.765)" fill="#fff"/>
        <path id="Path_388" data-name="Path 388" d="M2822.9,1915.613v0h0v0Z" transform="translate(-2471.29 -1867.765)" fill="#fff"/>
        <path id="Path_389" data-name="Path 389" d="M2763.382,1897.19h0Z" transform="translate(-2471.29 -1867.765)" fill="#fff"/>
        <path id="Path_390" data-name="Path 390" d="M2492.675,1915.617v0Z" transform="translate(-2471.29 -1867.765)" fill="#fff"/>
        <path id="Path_391" data-name="Path 391" d="M2754.238,2181.577a5.284,5.284,0,1,0-5.333-5.286,5.306,5.306,0,0,0,5.333,5.286Z" transform="translate(-2471.29 -1867.765)" fill="#fff"/>
      </g>
    </g>
  </g>
  <path id="Color_Overlay" data-name="Color Overlay" d="M235.22,378H17.858a18.615,18.615,0,0,1-5.466-.812,18,18,0,0,1-4.733-2.269,17.538,17.538,0,0,1-6.319-7.681A16.669,16.669,0,0,1,2.9,351.295v0l22.053-32.864,6.466-9.634a33.716,33.716,0,0,1-3.007-3.408,44.294,44.294,0,0,1-5.4-9.216,69.93,69.93,0,0,1-5.075-18.9,76.983,76.983,0,0,1-.7-9.945,61.114,61.114,0,0,1,4.037-21.7,75.219,75.219,0,0,1,11.36-19.763c9.761-12.406,23.6-23.208,40.4-32.029,3.073-1.613,6.258-3.152,9.527-4.631L40.764,67.767a31.347,31.347,0,0,1-10.817-6.454A30.717,30.717,0,0,1,25.9,20.5,31.365,31.365,0,0,1,51.149,7.721a31.4,31.4,0,0,1,18.3,5.886,30.709,30.709,0,0,1,7.019,43.06l38.556,121.015q9.9-2.676,20.448-4.608h0c.761-.139,1.534-.272,2.3-.406L117.908,68.651a17.9,17.9,0,0,1-5.081-1.172,21.222,21.222,0,0,1-5.556-3.252,29.52,29.52,0,0,1-8.108-10.678,36.981,36.981,0,0,1-2.87-9.345,37.791,37.791,0,0,1-.544-6.337,33.491,33.491,0,0,1,1.334-9.505,25.881,25.881,0,0,1,3.947-8.093,20.2,20.2,0,0,1,4.139-4.193,17.012,17.012,0,0,1,7.352-3.157,16.417,16.417,0,0,1,2.741-.227,17.613,17.613,0,0,1,6.4,1.228,21.368,21.368,0,0,1,5.563,3.252,29.518,29.518,0,0,1,8.1,10.678A37.136,37.136,0,0,1,138.2,37.2a37.653,37.653,0,0,1,.538,6.332,33.481,33.481,0,0,1-1.334,9.505,25.884,25.884,0,0,1-3.948,8.094,19.863,19.863,0,0,1-4.138,4.191c-.343.256-.7.494-1.059.723l20.051,105q10.58-1.408,21.632-2.035V55.588a30.983,30.983,0,0,1-8.3-9.3,30.706,30.706,0,0,1,1.195-32.669A31.227,31.227,0,0,1,188.687,0h.111a31.2,31.2,0,0,1,28.619,18.872,30.63,30.63,0,0,1,2.445,11.93h0v.11A30.574,30.574,0,0,1,215.735,46.3a31.258,31.258,0,0,1-8.31,9.3V169.294q11.093.784,21.717,2.385l.2.028L248.733,66.528l-.2-.11a18.9,18.9,0,0,1-4.559-3.758,25.538,25.538,0,0,1-5.466-10.618,34,34,0,0,1-1.055-8.51,37.769,37.769,0,0,1,.537-6.332A35.967,35.967,0,0,1,243.1,23.781a25.656,25.656,0,0,1,9.477-8.973,18.024,18.024,0,0,1,8.354-2.117,16.44,16.44,0,0,1,2.742.227,16.745,16.745,0,0,1,5.691,2.064,18.849,18.849,0,0,1,4.559,3.757,25.452,25.452,0,0,1,5.461,10.618,33.743,33.743,0,0,1,1.059,8.51A37.909,37.909,0,0,1,279.9,44.2a36.77,36.77,0,0,1-3.387,10.407,29.878,29.878,0,0,1-5.955,8.176,22.966,22.966,0,0,1-5.238,3.8,18.584,18.584,0,0,1-6.133,1.974l-19.35,104.944,1.985.384q9.849,1.969,19.114,4.614L296.579,56.733a30.627,30.627,0,0,1-4.487-27.307s0,0,0,0a30.8,30.8,0,0,1,11.461-15.815,31.346,31.346,0,0,1,27.588-4.475h.006A31.081,31.081,0,0,1,347.1,20.5a30.757,30.757,0,0,1-4.047,40.818,31.22,31.22,0,0,1-10.7,6.415L294.612,191.139a160.231,160.231,0,0,1,21.43,12.375,111.318,111.318,0,0,1,24.021,21.968,77.1,77.1,0,0,1,10.357,16.948,61.637,61.637,0,0,1,5.345,24.893,77,77,0,0,1-.9,11.29,72.093,72.093,0,0,1-3.538,14.037,51.654,51.654,0,0,1-4.581,9.449,39.256,39.256,0,0,1-5.192,6.648l6.487,9.678L370.1,351.29v0a16.792,16.792,0,0,1,2.9,9.384,17.034,17.034,0,0,1-2.922,9.488,17.668,17.668,0,0,1-7.8,6.41A18.352,18.352,0,0,1,355.141,378ZM33.829,324.273l-22.054,32.87a6.256,6.256,0,0,0-1.12,3.536,6.545,6.545,0,0,0,1.137,3.629,7.043,7.043,0,0,0,3.1,2.547,7.631,7.631,0,0,0,2.972.578H355.141a7.83,7.83,0,0,0,2.3-.333,7.043,7.043,0,0,0,1.884-.907,6.93,6.93,0,0,0,2.507-3.035,6.392,6.392,0,0,0,.51-2.479,6.207,6.207,0,0,0-1.116-3.536l-22.053-32.87-7.02-10.461H317.584a5.284,5.284,0,1,1,0-10.567h14.309a25.67,25.67,0,0,0,4.272-4.487,35.944,35.944,0,0,0,4.1-7.131,59.631,59.631,0,0,0,4.24-15.837,65.4,65.4,0,0,0,.6-8.467,50.024,50.024,0,0,0-2.522-15.626,60.418,60.418,0,0,0-7.386-14.9c-6.487-9.66-16.081-18.71-28.231-26.622a162.213,162.213,0,0,0-27.453-14.163c-4.34-1.756-8.837-3.408-13.485-4.914h-.006a229.692,229.692,0,0,0-26.3-6.85q-5.979-1.2-12.167-2.128a274.078,274.078,0,0,0-31.087-2.84h-.006q-4.938-.175-9.958-.172-2.869,0-5.725.056a276.125,276.125,0,0,0-31.1,2.357h-.006q-6.231.833-12.262,1.939H137.4a233.567,233.567,0,0,0-30.425,7.639h-.006q-6.972,2.26-13.479,4.914c-5.434,2.208-10.6,4.6-15.47,7.159h-.006a124.919,124.919,0,0,0-29.8,21.178c-7.918,7.812-13.66,16.239-16.974,24.993A50.41,50.41,0,0,0,27.9,267.323,68.927,68.927,0,0,0,29,279.136a54.924,54.924,0,0,0,4.357,14.058,30.124,30.124,0,0,0,5.187,7.715,21.118,21.118,0,0,0,2.613,2.335h206.09a5.284,5.284,0,1,1,0,10.567H40.849ZM271.112,181.652c4.267,1.429,8.422,2.957,12.437,4.586.426.172.841.351,1.26.522L320.73,69.306a31.915,31.915,0,0,1-7.665-1.512,38.155,38.155,0,0,1-7.507-3.4l-.1-.061ZM61.707,66.489a54.739,54.739,0,0,1-9.471,1.9L92.4,185.076q5.484-2.128,11.253-4.014l1.16-.366L67.668,64.127A36.563,36.563,0,0,1,61.707,66.489Zm135.06,102.238V60.58l-.146.039a31.983,31.983,0,0,1-7.57.9,34.825,34.825,0,0,1-8.45-1.067V168.6q2.925-.051,5.9-.055Q191.663,168.544,196.767,168.726ZM309.8,22.168a20.208,20.208,0,0,0-3.466,29.778c.1.095.258.235.471.418.465.388,1.178.961,2.1,1.6a28.7,28.7,0,0,0,7.48,3.792,20.835,20.835,0,0,0,6.444,1.068,17.967,17.967,0,0,0,4-.446,20.741,20.741,0,0,0,8.988-4.819,20.2,20.2,0,0,0,2.652-26.871,20.633,20.633,0,0,0-16.614-8.4h-.026A20.663,20.663,0,0,0,309.8,22.168ZM45.032,19.217a20.379,20.379,0,0,0-14.416,19.41,20.122,20.122,0,0,0,.942,6.071V44.7a20.15,20.15,0,0,0,5.629,8.855,20.716,20.716,0,0,0,8.478,4.68,53.713,53.713,0,0,0,6.257-.46,37.371,37.371,0,0,0,9.893-2.568,14.908,14.908,0,0,0,4.771-3.169,20.238,20.238,0,0,0-3.392-29.873,20.646,20.646,0,0,0-12.019-3.879h-.026A20.6,20.6,0,0,0,45.032,19.217ZM258.44,23.753a10.562,10.562,0,0,0-2.759,1.634,18.954,18.954,0,0,0-5.12,6.865,26.544,26.544,0,0,0-2.052,6.7,26.95,26.95,0,0,0-.393,4.575,23,23,0,0,0,.9,6.53,15.491,15.491,0,0,0,2.311,4.82,9.5,9.5,0,0,0,1.94,1.984,6.214,6.214,0,0,0,2.73,1.2,5.623,5.623,0,0,0,.97.084,6.8,6.8,0,0,0,2.5-.5,10.681,10.681,0,0,0,2.759-1.634,19.024,19.024,0,0,0,5.119-6.865,26.57,26.57,0,0,0,2.053-6.7,27.17,27.17,0,0,0,.393-4.58,23,23,0,0,0-.9-6.531,15.489,15.489,0,0,0-2.316-4.821,9.43,9.43,0,0,0-1.934-1.984,6.291,6.291,0,0,0-2.731-1.2,5.758,5.758,0,0,0-.97-.083A6.894,6.894,0,0,0,258.44,23.753Zm-144.149-.417a6.067,6.067,0,0,0-2.064.757,8.174,8.174,0,0,0-1.974,1.645,15.117,15.117,0,0,0-3.128,6.254,23.557,23.557,0,0,0-.718,5.875,27.056,27.056,0,0,0,.393,4.58,26.27,26.27,0,0,0,2.405,7.433,19.536,19.536,0,0,0,3.829,5.308,12.346,12.346,0,0,0,2.8,2.052,7.4,7.4,0,0,0,3.392.907,5.6,5.6,0,0,0,.97-.084,5.973,5.973,0,0,0,2.064-.756,8.307,8.307,0,0,0,1.979-1.645,15.094,15.094,0,0,0,3.123-6.254,23.5,23.5,0,0,0,.719-5.875,26.842,26.842,0,0,0-.394-4.575,26.192,26.192,0,0,0-2.4-7.437,19.529,19.529,0,0,0-3.83-5.309,12.553,12.553,0,0,0-2.792-2.052,7.4,7.4,0,0,0-3.4-.907A5.758,5.758,0,0,0,114.291,23.335Zm62.93-9.3a20.458,20.458,0,0,0-7.442,8.956,20.238,20.238,0,0,0,1.106,18.032,20.533,20.533,0,0,0,7.126,7.26l.056.028c.108.062.3.156.555.278a21.632,21.632,0,0,0,2.327.95,24.848,24.848,0,0,0,8.1,1.412,20.969,20.969,0,0,0,10.334-2.685,20.528,20.528,0,0,0,7.11-7.231,20.091,20.091,0,0,0,2.713-10.117v-.012a20.067,20.067,0,0,0-3.5-11.368,20.531,20.531,0,0,0-17.017-8.97h-.006A20.473,20.473,0,0,0,177.22,14.036Zm100.4,294.491a5.33,5.33,0,1,1,5.332,5.286A5.31,5.31,0,0,1,277.616,308.527Zm-48.478-136.85h.006ZM351.614,47.848v0h0Zm-330.229,0v0h0Z" transform="translate(0 0)" fill="#fff"/>
</svg>
